<?xml version="1.0" encoding="UTF-8"?>
<svg width="32" height="32" viewBox="0 0 32 32" version="1.1" xmlns="http://www.w3.org/2000/svg">
    <!-- Background -->
    <defs>
        <linearGradient id="bgGradient" x1="0%" y1="0%" x2="100%" y2="100%">
            <stop offset="0%" style="stop-color:#2c3e50;stop-opacity:1" />
            <stop offset="100%" style="stop-color:#34495e;stop-opacity:1" />
        </linearGradient>
    </defs>
    <circle cx="16" cy="16" r="16" fill="url(#bgGradient)"/>
    
    <!-- Tools Group -->
    <g transform="translate(8, 8) scale(0.5)">
        <!-- Wrench -->
        <path d="M25 5 C22 5 19 6.5 17 9 L12 16 C10 19 10 23 12 26 C14 29 17 30 20 30 C23 30 26 29 28 26 L33 19 C35 16 35 12 33 9 C31 6.5 28 5 25 5 Z" fill="#3498db">
            <animate attributeName="fill" values="#3498db;#2980b9;#3498db" dur="3s" repeatCount="indefinite"/>
        </path>
        <!-- Hammer -->
        <path d="M40 8 L45 3 L48 6 L43 11 L45 13 L35 23 L33 21 L43 11 L40 8" fill="#e74c3c">
            <animate attributeName="fill" values="#e74c3c;#c0392b;#e74c3c" dur="3s" repeatCount="indefinite"/>
        </path>
    </g>
</svg>
